<svg width="2001" height="2045" xmlns="http://www.w3.org/2000/svg" xmlns:xlink="http://www.w3.org/1999/xlink" xml:space="preserve" overflow="hidden"><defs><clipPath id="clip0"><rect x="1151" y="67" width="2001" height="2045"/></clipPath></defs><g clip-path="url(#clip0)" transform="translate(-1151 -67)"><path d="M2458.7 427.706 2278.41 608.06 1602.36 608.06 1422.08 427.706 2458.7 427.706ZM2626.96 427.706 2882.35 427.706 2702.07 608.06 2446.68 608.06 2626.96 427.706ZM2152.22 908.648C2101.14 908.648 2062.08 869.573 2062.08 818.472 2062.08 767.37 2101.14 728.295 2152.22 728.295 2203.3 728.295 2242.36 767.37 2242.36 818.472 2242.36 869.573 2203.3 908.648 2152.22 908.648ZM3146.77 334.522C3155.78 325.506 3149.77 307.471 3134.75 307.471L2744.14 307.471 2882.35 169.2C2906.39 145.153 2906.39 109.082 2882.35 85.0354 2858.32 60.9883 2822.26 60.9883 2798.22 85.0354L2578.88 307.471 1166.68 307.471C1154.66 307.471 1145.65 322.502 1154.66 334.522L2092.12 1269.35 2092.12 1870.53C2092.12 1900.59 2053.06 1924.64 2004.99 1939.67 1959.92 1945.68 1917.85 1951.69 1884.8 1960.71L1881.8 1960.71C1824.71 1975.74 1791.66 1996.78 1791.66 2020.83 1791.66 2071.93 1953.91 2111 2152.22 2111 2350.53 2111 2512.78 2071.93 2512.78 2020.83 2512.78 1996.78 2476.72 1975.74 2422.64 1960.71 2386.58 1951.69 2347.52 1942.67 2299.45 1939.67 2251.37 1924.64 2212.31 1900.59 2212.31 1870.53L2212.31 1269.35 3146.77 334.522Z" fill="#215F9A" fill-rule="evenodd"/></g></svg>